<svg xmlns="http://www.w3.org/2000/svg" width="11.016" height="15.408" viewBox="0 0 11.016 15.408">
  <path id="Icon_gis-poi-o" data-name="Icon gis-poi-o" d="M10.639,0A5.522,5.522,0,0,0,5.13,5.494,5.448,5.448,0,0,0,6.136,8.647l-.019-.029L9.692,14.8l.015.02a1.851,1.851,0,0,0,.44.436.875.875,0,0,0,.559.151,1.26,1.26,0,0,0,.863-.627l.012-.016,3.942-6.709,0,0a3.229,3.229,0,0,0,.218-.5,5.43,5.43,0,0,0,.4-2.052A5.521,5.521,0,0,0,10.639,0Zm0,.77a4.745,4.745,0,0,1,4.738,4.723,4.655,4.655,0,0,1-.349,1.769l0,.01,0,.01a2.534,2.534,0,0,1-.169.393l-3.908,6.651a1.123,1.123,0,0,1-.313.312s0,.008-.057-.027a1.239,1.239,0,0,1-.245-.252L6.775,8.216,6.765,8.2A4.672,4.672,0,0,1,5.9,5.494,4.745,4.745,0,0,1,10.639.77Zm0,1.624a3.1,3.1,0,1,0,3.107,3.1A3.1,3.1,0,0,0,10.639,2.394Zm0,.77A2.33,2.33,0,1,1,8.3,5.494,2.307,2.307,0,0,1,10.639,3.164Z" transform="translate(-5.13)" fill="#1ed4a9"/>
</svg>
