<svg xmlns="http://www.w3.org/2000/svg" width="25.634" height="25.634" viewBox="0 0 25.634 25.634">
  <g id="share-alt" transform="translate(1 1)">
    <path id="Trazado_94" data-name="Trazado 94" d="M18.711,13.787a4.912,4.912,0,0,1,4.924,4.924,4.912,4.912,0,0,1-4.924,4.924,4.912,4.912,0,0,1-4.924-4.924q0-.185.031-.523l-5.539-2.77a4.747,4.747,0,0,1-3.354,1.323A4.747,4.747,0,0,1,1.439,15.3,4.747,4.747,0,0,1,0,11.817,4.747,4.747,0,0,1,1.439,8.332,4.747,4.747,0,0,1,4.924,6.893,4.747,4.747,0,0,1,8.278,8.217l5.539-2.77q-.031-.339-.031-.523a4.747,4.747,0,0,1,1.439-3.485,4.941,4.941,0,0,1,6.97,0,4.747,4.747,0,0,1,1.439,3.485A4.747,4.747,0,0,1,22.2,8.409a4.927,4.927,0,0,1-6.84.115l-5.539,2.77q.031.339.031.523t-.031.523l5.539,2.77A4.747,4.747,0,0,1,18.711,13.787Z" transform="translate(0 0)" fill="none" stroke="#25303c" stroke-width="2"/>
  </g>
</svg>
