<svg xmlns="http://www.w3.org/2000/svg" width="24.029" height="33.409" viewBox="0 0 24.029 33.409">
  <path id="Icon_gis-poi-o" data-name="Icon gis-poi-o" d="M16.9,0A11.793,11.793,0,0,0,5.13,11.734a11.636,11.636,0,0,0,2.149,6.734l-.04-.063,7.636,13.2.032.042a3.953,3.953,0,0,0,.94.931,1.87,1.87,0,0,0,1.193.323,2.691,2.691,0,0,0,1.843-1.339l.026-.035L27.327,17.2l.005-.01a6.9,6.9,0,0,0,.467-1.073,11.6,11.6,0,0,0,.861-4.382A11.792,11.792,0,0,0,16.9,0Zm0,1.645A10.133,10.133,0,0,1,27.014,11.734a9.943,9.943,0,0,1-.744,3.779l-.009.02-.007.021a5.413,5.413,0,0,1-.361.838L17.544,30.6a2.4,2.4,0,0,1-.669.665s-.005.018-.121-.059a2.646,2.646,0,0,1-.523-.539L8.644,17.548l-.021-.03a9.978,9.978,0,0,1-1.847-5.784A10.135,10.135,0,0,1,16.9,1.645Zm0,3.467a6.621,6.621,0,1,0,6.637,6.621A6.618,6.618,0,0,0,16.9,5.113Zm0,1.645A4.975,4.975,0,1,1,11.9,11.734,4.926,4.926,0,0,1,16.9,6.758Z" transform="translate(-4.88 0.25)" fill="#fff" stroke="#f7fdfd" stroke-width="0.5"/>
</svg>
